HIERARCHY
ROOT Hips
{
 OFFSET 0.000000 0.000000 0.000000
 CHANNELS 6 Xposition Yposition Zposition Yrotation Xrotation Zrotation
 JOINT Chest
 {
  OFFSET 0.000000 9.585900 0.002600
  CHANNELS 3 Yrotation Xrotation Zrotation
  JOINT Chest2
  {
   OFFSET 0.000000 9.601200 -0.005300
   CHANNELS 3 Yrotation Xrotation Zrotation
   JOINT Chest3
   {
    OFFSET 0.000000 9.561800 0.000000
    CHANNELS 3 Yrotation Xrotation Zrotation
    JOINT Chest4
    {
     OFFSET 0.000000 9.552100 0.000000
     CHANNELS 3 Yrotation Xrotation Zrotation
     JOINT Neck
     {
      OFFSET 0.000000 14.453000 0.000000
      CHANNELS 3 Yrotation Xrotation Zrotation
      JOINT Head
      {
       OFFSET 0.000000 8.936500 -0.011300
       CHANNELS 3 Yrotation Xrotation Zrotation
       End Site
       {
        OFFSET 0.000000 17.073600 -0.006000
       }
      }
     }
     JOINT RightCollar
     {
      OFFSET -2.921100 9.558500 0.000000
      CHANNELS 3 Yrotation Xrotation Zrotation
      JOINT RightShoulder
      {
       OFFSET -13.519700 0.000000 0.000000
       CHANNELS 3 Yrotation Xrotation Zrotation
       JOINT RightElbow
       {
        OFFSET 0.000000 -29.696600 0.000000
        CHANNELS 3 Yrotation Xrotation Zrotation
        JOINT RightWrist
        {
         OFFSET 0.000000 -24.004700 0.000000
         CHANNELS 3 Yrotation Xrotation Zrotation
         End Site
         {
          OFFSET 0.000000 -17.728500 0.000000
         }
        }
       }
      }
     }
     JOINT LeftCollar
     {
      OFFSET 2.921100 9.558500 0.000000
      CHANNELS 3 Yrotation Xrotation Zrotation
      JOINT LeftShoulder
      {
       OFFSET 13.519700 0.000000 0.000000
       CHANNELS 3 Yrotation Xrotation Zrotation
       JOINT LeftElbow
       {
        OFFSET 0.000000 -29.696600 0.000000
        CHANNELS 3 Yrotation Xrotation Zrotation
        JOINT LeftWrist
        {
         OFFSET 0.000000 -24.004700 0.000000
         CHANNELS 3 Yrotation Xrotation Zrotation
         End Site
         {
          OFFSET 0.000000 -17.728500 0.000000
         }
        }
       }
      }
     }
    }
   }
  }
 }
 JOINT RightHip
 {
  OFFSET -7.771700 -0.012900 -0.001300
  CHANNELS 3 Yrotation Xrotation Zrotation
  JOINT RightKnee
  {
   OFFSET 0.000000 -40.869800 0.001200
   CHANNELS 3 Yrotation Xrotation Zrotation
   JOINT RightAnkle
   {
    OFFSET 0.000000 -39.717900 0.002100
    CHANNELS 3 Yrotation Xrotation Zrotation
    JOINT RightToe
    {
     OFFSET 0.000000 -4.965400 11.033500
     CHANNELS 3 Yrotation Xrotation Zrotation
     End Site
     {
      OFFSET 0.000000 -1.423100 5.872300
     }
    }
   }
  }
 }
 JOINT LeftHip
 {
  OFFSET 7.771700 -0.012900 -0.001300
  CHANNELS 3 Yrotation Xrotation Zrotation
  JOINT LeftKnee
  {
   OFFSET 0.000000 -40.869800 0.001200
   CHANNELS 3 Yrotation Xrotation Zrotation
   JOINT LeftAnkle
   {
    OFFSET 0.000000 -39.717900 0.002100
    CHANNELS 3 Yrotation Xrotation Zrotation
    JOINT LeftToe
    {
     OFFSET 0.000000 -4.965400 11.033500
     CHANNELS 3 Yrotation Xrotation Zrotation
     End Site
     {
      OFFSET 0.000000 -1.423100 5.872300
     }
    }
   }
  }
 }
}
MOTION
Frames: 12
Frame Time: 0.008333
-55.144925 54.953249 48.104801 -179.593074 -28.497904 -10.601713 0.722908 12.392556 5.744110 0.168721 7.013839 2.037567 0.249205 8.761092 2.557814 0.169453 7.020871 2.032881 4.850040 20.359061 0.231921 5.167938 -3.983749 -0.866646 -2.563448 1.906461 -4.898915 -13.400332 -1.936635 3.700078 -14.995771 -80.496617 31.319567 9.938659 -13.323550 -7.427302 -8.637158 3.263378 -2.286239 6.754780 0.086076 -1.317644 -107.674780 -80.316793 114.076219 17.961609 -11.921715 -18.651956 -20.368495 -38.065394 6.455098 -7.751040 86.612179 -11.109917 3.197041 -16.785114 0.629579 -0.052420 0.455807 -0.020245 -16.413762 -49.660688 16.547014 166.493122 78.556628 161.684655 -0.910697 -15.957171 1.493333 -1.205685 -3.233323 -0.528559
-55.146898 54.961582 48.104227 -179.579476 -28.484772 -10.607545 0.713656 12.388095 5.742756 0.167841 7.012973 2.037325 0.249417 8.764922 2.554533 0.167750 7.013039 2.037243 4.832861 20.334235 0.236511 5.135238 -4.028556 -0.849878 -2.556417 1.895869 -4.901817 -13.400320 -1.957660 3.711610 -15.730799 -80.579072 32.054290 9.984653 -13.202130 -7.403533 -8.626350 3.248209 -2.285365 6.756748 0.092107 -1.305446 -108.261923 -80.422139 114.605080 18.025229 -11.968881 -18.215146 -20.369968 -38.075455 6.458690 -7.694173 86.616909 -11.052789 3.178155 -16.789697 0.642456 -0.011198 0.453081 -0.024915 -16.443382 -49.671071 16.556877 166.486542 78.557646 161.669102 -0.912679 -15.945481 1.496997 -1.206224 -3.239902 -0.530928
-55.149927 54.968960 48.105182 -179.561087 -28.461573 -10.608066 0.722325 12.390235 5.744945 0.150733 6.997973 2.034739 0.252590 8.763894 2.554039 0.159772 7.007784 2.036505 4.809005 20.301678 0.242800 5.105244 -4.063526 -0.839467 -2.556158 1.878122 -4.902734 -13.409161 -1.971387 3.718489 -16.087754 -80.603943 32.430053 9.934248 -13.301948 -7.391080 -8.618279 3.228982 -2.277133 6.760085 0.081092 -1.273150 -108.815923 -80.552901 115.086950 18.104838 -12.059796 -17.654452 -20.377385 -38.099306 6.443689 -7.544776 86.623400 -10.904002 3.224489 -16.793317 0.635419 -0.004667 0.451026 -0.024777 -16.500209 -49.688108 16.569650 166.486385 78.562714 161.648546 -0.901453 -15.933717 1.494552 -1.207594 -3.242454 -0.535505
-55.152251 54.976177 48.107001 -179.540870 -28.435525 -10.612346 0.711491 12.376016 5.743148 0.150740 6.996744 2.035303 0.243201 8.756247 2.553804 0.174486 7.007014 2.037522 4.770910 20.269147 0.245421 5.069208 -4.102604 -0.829774 -2.564857 1.861146 -4.907888 -13.422937 -1.972983 3.721849 -16.459493 -80.638390 32.824639 9.895492 -13.364002 -7.425574 -8.619217 3.212610 -2.272099 6.736946 0.080723 -1.245295 -109.470033 -80.690782 115.675422 18.211851 -12.218987 -16.955252 -20.387291 -38.123511 6.432966 -7.410705 86.628032 -10.763327 3.247085 -16.798061 0.634988 -0.067193 0.450316 -0.027809 -16.545775 -49.708540 16.574782 166.472507 78.570239 161.630827 -0.903181 -15.928261 1.486937 -1.198794 -3.236950 -0.535136
-55.155441 54.983119 48.109342 -179.521870 -28.409747 -10.609387 0.691991 12.356583 5.731944 0.161290 7.002513 2.037627 0.241415 8.751861 2.554979 0.168616 7.001469 2.037430 4.741624 20.231814 0.244397 5.028109 -4.146908 -0.822503 -2.565665 1.852265 -4.911334 -13.430316 -1.969363 3.723299 -16.823673 -80.689779 33.206983 9.868512 -13.404675 -7.474179 -8.605572 3.199526 -2.264947 6.694882 0.079243 -1.219088 -110.355384 -80.867623 116.489582 18.351832 -12.467707 -16.095556 -20.390799 -38.150207 6.426511 -7.454690 86.633270 -10.802158 3.218986 -16.805264 0.648195 -0.068393 0.451669 -0.029053 -16.581707 -49.729369 16.567441 166.474279 78.582704 161.629355 -0.898893 -15.923420 1.474587 -1.192587 -3.228775 -0.529971
-55.157547 54.989493 48.113474 -179.497292 -28.376426 -10.614533 0.681508 12.340021 5.730160 0.160909 6.997213 2.038470 0.240768 8.745319 2.555919 0.160846 6.997253 2.038415 4.716984 20.201376 0.243178 4.978860 -4.211683 -0.820156 -2.564479 1.843871 -4.915711 -13.445123 -1.982596 3.718128 -17.149696 -80.724625 33.551917 9.842337 -13.455070 -7.518241 -8.562909 3.179083 -2.250450 6.619487 0.084617 -1.192549 -111.603452 -81.113060 117.650985 18.525857 -12.822676 -15.068236 -20.405327 -38.181291 6.423893 -7.442359 86.635085 -10.790412 3.241441 -16.809340 0.649552 -0.081886 0.452715 -0.026096 -16.632431 -49.757984 16.566943 166.437958 78.592701 161.596799 -0.895806 -15.917917 1.456062 -1.184873 -3.219280 -0.525180
-55.164310 54.992529 48.122249 -179.449841 -28.310573 -10.601504 0.641605 12.296337 5.701263 0.179084 7.003001 2.049735 0.237545 8.732648 2.560316 0.142425 6.985383 2.033828 4.692862 20.191135 0.239164 4.918008 -4.314293 -0.823869 -2.557494 1.819105 -4.937982 -13.473408 -1.967666 3.721670 -17.470608 -80.770244 33.887611 9.821797 -13.510619 -7.541226 -8.551151 3.172218 -2.244592 6.577705 0.083061 -1.180878 -113.303570 -81.412748 119.234193 18.732106 -13.280870 -13.888380 -20.434001 -38.255131 6.404677 -7.438798 86.645990 -10.789961 3.226650 -16.817180 0.661218 -0.037792 0.456040 -0.023244 -16.675339 -49.823080 16.533449 166.410409 78.607830 161.577234 -0.934361 -15.941375 1.439249 -1.139326 -3.176072 -0.508289
-55.167108 54.998276 48.127673 -179.428957 -28.280662 -10.600449 0.638555 12.283890 5.702003 0.172487 6.998577 2.051673 0.229507 8.723844 2.557242 0.151806 6.984067 2.038396 4.650672 20.138430 0.227831 4.871870 -4.395539 -0.831399 -2.564486 1.808372 -4.956130 -13.483687 -1.972297 3.722351 -17.791311 -80.821423 34.213590 9.807077 -13.563289 -7.539232 -8.539149 3.167641 -2.238648 6.536272 0.074986 -1.172459 -115.413013 -81.768068 121.215502 18.970407 -13.820565 -12.580934 -20.443134 -38.286831 6.404723 -7.527096 86.648552 -10.876367 3.202428 -16.819088 0.673504 -0.049837 0.455022 -0.023378 -16.706768 -49.851340 16.522981 166.365057 78.620961 161.540378 -0.946895 -15.932801 1.422837 -1.119933 -3.166929 -0.499696
-55.172724 55.001387 48.136858 -179.392766 -28.226800 -10.590161 0.609621 12.252389 5.685974 0.164233 6.989715 2.049687 0.226201 8.718284 2.556087 0.156139 6.981954 2.043093 4.594972 20.042937 0.208526 4.842557 -4.450376 -0.839248 -2.567167 1.804030 -4.978411 -13.477609 -1.970519 3.725575 -18.161960 -80.885388 34.572300 9.798745 -13.609373 -7.514336 -8.518347 3.169653 -2.233352 6.451913 0.034439 -1.146480 -117.755105 -82.174418 123.468750 19.236055 -14.410138 -11.185604 -20.469439 -38.345634 6.412106 -7.659896 86.654171 -11.016109 3.119767 -16.828441 0.703592 -0.086247 0.456467 -0.026039 -16.779915 -49.916409 16.487145 166.185399 78.623677 161.375405 -0.925751 -15.880218 1.387036 -1.115948 -3.187820 -0.505436
-55.176218 55.005760 48.144274 -179.375341 -28.194893 -10.585260 0.599160 12.237365 5.683096 0.154223 6.977716 2.043715 0.232474 8.720952 2.562433 0.157778 6.979423 2.047510 4.565254 20.005883 0.193133 4.789072 -4.580488 -0.853996 -2.573218 1.803008 -5.006231 -13.463552 -1.970116 3.732242 -18.563523 -80.955482 34.956000 9.794793 -13.645863 -7.474614 -8.512733 3.168030 -2.236873 6.414057 0.027159 -1.147848 -120.547131 -82.529185 126.150591 19.503455 -15.013352 -9.751079 -20.474519 -38.381541 6.416592 -7.831284 86.655834 -11.179888 3.066646 -16.833178 0.719647 -0.093886 0.458645 -0.027270 -16.818537 -49.955493 16.468050 166.052874 78.625620 161.252161 -0.911611 -15.849454 1.364493 -1.121243 -3.198024 -0.505320
-55.177807 55.011016 48.150258 -179.365479 -28.179717 -10.589624 0.612786 12.246126 5.707772 0.138565 6.963024 2.034400 0.230480 8.717230 2.561831 0.152744 6.974611 2.043302 4.509637 19.869237 0.168292 4.772519 -4.619744 -0.859059 -2.573105 1.808439 -5.028779 -13.449240 -1.971159 3.739038 -18.986072 -81.031710 35.362635 9.788355 -13.677068 -7.429667 -8.497925 3.170358 -2.234921 6.383496 0.028977 -1.155640 -123.601564 -82.836137 129.110605 19.740534 -15.593001 -8.312321 -20.473132 -38.398348 6.412474 -7.807942 86.655097 -11.153127 3.123229 -16.831621 0.706377 -0.073415 0.457721 -0.024763 -16.858110 -49.974963 16.462579 165.923611 78.624492 161.135282 -0.902902 -15.819755 1.343323 -1.119333 -3.211683 -0.511267
-55.178971 55.016198 48.155786 -179.358544 -28.171867 -10.595891 0.618235 12.246525 5.718962 0.137453 6.963688 2.037527 0.239869 8.722375 2.565311 0.138204 6.961868 2.039358 4.470080 19.767752 0.147314 4.743671 -4.699929 -0.866285 -2.576212 1.812423 -5.046413 -13.447036 -1.960173 3.725684 -19.353901 -81.074932 35.728500 9.782137 -13.757991 -7.386702 -8.420233 3.174073 -2.217775 6.296634 0.032411 -1.174444 -126.708970 -83.083849 132.150224 19.933910 -16.117460 -6.887540 -20.480740 -38.407582 6.408740 -7.520847 86.656873 -10.893706 3.291530 -16.826669 0.675486 -0.071004 0.455095 -0.019503 -16.890687 -49.985434 16.462650 165.820586 78.624473 161.041269 -0.898428 -15.796999 1.330782 -1.117617 -3.220439 -0.515777
